<?xml version="1.0" standalone="no"?>
<!DOCTYPE svg PUBLIC "-//W3C//DTD SVG 20010904//EN"
 "http://www.w3.org/TR/2001/REC-SVG-20010904/DTD/svg10.dtd">
<svg version="1.0" xmlns="http://www.w3.org/2000/svg"
 width="639.000000pt" height="639.000000pt" viewBox="0 0 639.000000 639.000000"
 preserveAspectRatio="xMidYMid meet">
<metadata>
Created by potrace 1.11, written by Peter Selinger 2001-2013
</metadata>
<g transform="translate(0.000000,639.000000) scale(0.100000,-0.100000)"
fill="#000000" stroke="none">
<path d="M2836 6285 c-14 -10 -45 -15 -101 -15 -51 0 -86 -5 -93 -12 -7 -7
-41 -15 -75 -19 -57 -6 -107 -19 -149 -40 -10 -5 -32 -9 -49 -9 -17 0 -45 -6
-62 -13 -43 -18 -95 -37 -132 -47 -39 -11 -91 -29 -133 -46 -18 -8 -39 -14
-47 -14 -23 0 -316 -153 -389 -203 -38 -27 -87 -57 -110 -69 -22 -11 -60 -38
-83 -59 -24 -22 -48 -39 -56 -39 -7 0 -31 -18 -52 -40 -21 -22 -45 -40 -53
-40 -7 0 -49 -34 -92 -75 -43 -41 -85 -75 -93 -75 -17 0 -137 -123 -137 -141
0 -7 -38 -52 -85 -100 -47 -47 -85 -93 -85 -101 0 -8 -18 -32 -40 -53 -22 -21
-40 -44 -40 -50 0 -7 -11 -27 -25 -46 -48 -64 -74 -104 -101 -154 -15 -27 -37
-63 -49 -80 -33 -44 -195 -379 -195 -401 0 -11 -5 -25 -11 -31 -6 -6 -14 -26
-19 -44 -10 -39 -27 -90 -46 -137 -8 -18 -14 -47 -14 -65 0 -18 -4 -37 -9 -42
-6 -6 -12 -32 -16 -60 -3 -27 -10 -54 -15 -59 -6 -6 -10 -26 -10 -45 -1 -20
-7 -47 -15 -61 -8 -14 -15 -53 -15 -90 0 -41 -6 -72 -15 -84 -12 -15 -15 -54
-15 -170 -1 -112 -4 -157 -15 -176 -19 -33 -19 -111 0 -136 11 -15 15 -55 15
-184 1 -124 4 -171 15 -190 8 -14 14 -46 15 -71 0 -26 7 -60 15 -75 8 -16 15
-50 15 -75 0 -26 7 -60 15 -75 8 -16 15 -43 15 -61 0 -17 4 -35 10 -38 5 -3
10 -16 10 -28 0 -12 7 -35 15 -51 8 -15 15 -38 15 -50 0 -12 7 -31 15 -42 8
-10 15 -28 15 -39 0 -11 20 -60 45 -110 25 -49 45 -96 45 -104 0 -20 120 -258
137 -273 8 -7 34 -53 58 -103 24 -50 59 -105 79 -124 20 -19 36 -39 36 -43 0
-28 101 -143 316 -359 164 -166 244 -254 244 -268 0 -16 -19 -30 -89 -66 -49
-24 -92 -49 -96 -55 -4 -6 -33 -24 -65 -40 -32 -16 -62 -34 -65 -40 -4 -6 -35
-24 -70 -41 -35 -16 -69 -37 -76 -45 -7 -9 -41 -29 -75 -45 -34 -16 -67 -36
-74 -44 -6 -8 -33 -24 -58 -36 -26 -12 -60 -33 -75 -46 -16 -13 -52 -34 -80
-47 -29 -13 -60 -32 -70 -43 -9 -11 -42 -28 -72 -38 -53 -18 -74 -42 -60 -65
4 -7 532 -10 1578 -10 1375 0 1576 2 1601 15 20 11 60 15 135 15 79 0 112 4
127 15 12 9 43 15 84 15 37 0 76 7 90 15 14 8 41 15 60 15 19 0 46 7 60 15 14
8 39 14 56 15 18 0 45 7 60 15 16 8 47 15 69 15 50 1 133 29 170 58 15 12 42
22 60 22 34 0 382 167 421 202 12 11 36 27 53 36 51 29 174 114 220 154 24 21
49 38 55 38 16 0 506 492 506 508 0 7 20 35 45 61 25 26 45 51 45 54 0 3 20
34 45 69 24 35 60 93 80 130 19 36 39 69 44 72 13 9 111 203 111 222 0 8 20
55 45 104 25 49 45 96 45 104 0 9 6 30 14 48 8 18 22 60 32 93 10 33 22 64 26
70 4 5 8 18 8 30 0 11 7 33 15 49 8 15 15 42 15 60 1 17 7 42 15 56 8 14 14
48 15 76 0 28 6 59 15 70 10 13 15 45 15 99 0 50 6 89 15 105 22 38 22 662 0
704 -10 18 -15 56 -15 105 0 52 -5 83 -15 97 -8 11 -15 42 -15 74 0 32 -7 63
-15 74 -8 11 -15 34 -15 52 0 17 -7 48 -15 67 -8 20 -15 48 -15 61 0 14 -11
46 -25 72 -14 26 -25 54 -25 63 0 9 -7 29 -15 45 -8 15 -15 36 -15 45 0 9 -24
64 -54 123 -30 59 -57 122 -61 140 -4 18 -24 58 -44 88 -19 30 -45 74 -57 98
-12 24 -31 53 -42 65 -11 12 -31 47 -45 77 -14 30 -41 71 -61 89 -20 19 -36
41 -36 48 0 7 -17 32 -39 56 -21 23 -45 56 -54 72 -20 39 -429 445 -449 445
-8 0 -25 11 -38 25 -13 14 -30 25 -37 25 -8 0 -40 24 -71 53 -31 30 -79 65
-107 78 -27 13 -75 39 -105 58 -81 52 -461 241 -485 241 -11 0 -29 7 -39 15
-11 8 -28 15 -38 15 -9 0 -32 6 -50 14 -60 25 -133 46 -160 46 -15 0 -30 5
-33 10 -3 6 -23 10 -43 10 -20 1 -48 7 -62 15 -14 8 -48 14 -76 15 -28 0 -59
6 -70 15 -11 8 -42 15 -74 15 -32 0 -63 7 -74 15 -29 22 -711 22 -740 0z
m-766 -2790 c19 -9 58 -37 85 -60 43 -37 54 -53 74 -115 42 -126 16 -239 -77
-334 -46 -48 -80 -65 -154 -77 -76 -12 -165 4 -218 40 -42 29 -97 96 -123 153
-23 48 -22 158 0 223 24 67 102 145 173 174 68 26 185 25 240 -4z m1216 9 c70
-24 148 -85 173 -136 80 -166 24 -354 -127 -430 -56 -27 -74 -32 -142 -32 -64
0 -87 5 -133 28 -62 30 -118 88 -148 153 -14 31 -19 64 -19 126 0 74 4 91 31
146 64 127 227 192 365 145z m1287 -18 c105 -51 167 -154 167 -275 0 -80 -16
-125 -71 -198 -45 -60 -89 -86 -175 -103 -139 -27 -251 27 -334 164 -22 36
-24 52 -24 136 0 117 21 169 91 227 84 70 124 84 225 79 47 -2 83 -11 121 -30z"/>
</g>
</svg>
